HIERARCHY
ROOT hip
{
  OFFSET 0 0 0
  CHANNELS 6 Xposition Yposition Zposition Zrotation Yrotation Xrotation
  JOINT abdomen
  {
    OFFSET 0 20.6881 -0.73152
    CHANNELS 3 Zrotation Xrotation Yrotation
    JOINT chest
    {
      OFFSET 0 11.7043 -0.48768
      CHANNELS 3 Zrotation Xrotation Yrotation
      JOINT neck
      {
        OFFSET 0 22.1894 -2.19456
        CHANNELS 3 Zrotation Xrotation Yrotation
        JOINT head
        {
          OFFSET -0.24384 7.07133 1.2192
          CHANNELS 3 Zrotation Xrotation Yrotation
          JOINT leftEye
          {
            OFFSET 4.14528 8.04674 8.04672
            CHANNELS 3 Zrotation Xrotation Yrotation
            End Site
            {
              OFFSET 1 0 0
            }
          }
          JOINT rightEye
          {
            OFFSET -3.6576 8.04674 8.04672
            CHANNELS 3 Zrotation Xrotation Yrotation
            End Site
            {
              OFFSET 1 0 0
            }
          }
        }
      }
      JOINT rCollar
      {
        OFFSET -2.68224 19.2634 -4.8768
        CHANNELS 3 Zrotation Xrotation Yrotation
        JOINT rShldr
        {
          OFFSET -8.77824 -1.95073 1.46304
          CHANNELS 3 Zrotation Xrotation Yrotation
          JOINT rForeArm
          {
            OFFSET -28.1742 -1.7115 0.48768
            CHANNELS 3 Zrotation Xrotation Yrotation
            JOINT rHand
            {
              OFFSET -22.5879 0.773209 7.07136
              CHANNELS 3 Zrotation Xrotation Yrotation
              JOINT rThumb1
              {
                OFFSET -1.2192 -0.487915 3.41376
                CHANNELS 3 Zrotation Xrotation Yrotation
                JOINT rThumb2
                {
                  OFFSET -3.37035 -0.52449 3.41376
                  CHANNELS 3 Zrotation Xrotation Yrotation
                  End Site
                  {
                    OFFSET -1.78271 -1.18214 1.43049
                  }
                }
              }
              JOINT rIndex1
              {
                OFFSET -7.75947 0.938293 5.60832
                CHANNELS 3 Zrotation Xrotation Yrotation
                JOINT rIndex2
                {
                  OFFSET -2.54057 -0.884171 1.56538
                  CHANNELS 3 Zrotation Xrotation Yrotation
                  End Site
                  {
                    OFFSET -1.62519 -0.234802 1.16502
                  }
                }
              }
              JOINT rMid1
              {
                OFFSET -8.24714 1.18213 3.41376
                CHANNELS 3 Zrotation Xrotation Yrotation
                JOINT rMid2
                {
                  OFFSET -3.10165 -0.590103 1.0647
                  CHANNELS 3 Zrotation Xrotation Yrotation
                  End Site
                  {
                    OFFSET -2.48547 -0.328903 0.83742
                  }
                }
              }
              JOINT rRing1
              {
                OFFSET -8.82822 0.546677 1.51678
                CHANNELS 3 Zrotation Xrotation Yrotation
                JOINT rRing2
                {
                  OFFSET -2.60934 -0.819778 -0.0198488
                  CHANNELS 3 Zrotation Xrotation Yrotation
                  End Site
                  {
                    OFFSET -2.33842 -0.294052 0.168128
                  }
                }
              }
              JOINT rPinky1
              {
                OFFSET -8.27202 -0.0477905 -0.4584
                CHANNELS 3 Zrotation Xrotation Yrotation
                JOINT rPinky2
                {
                  OFFSET -1.82734 -0.647385 -0.700984
                  CHANNELS 3 Zrotation Xrotation Yrotation
                  End Site
                  {
                    OFFSET -1.69225 -0.51767 -0.607171
                  }
                }
              }
            }
          }
        }
      }
      JOINT lCollar
      {
        OFFSET 2.68224 19.2634 -4.8768
        CHANNELS 3 Zrotation Xrotation Yrotation
        JOINT lShldr
        {
          OFFSET 8.77824 -1.95073 1.46304
          CHANNELS 3 Zrotation Xrotation Yrotation
          JOINT lForeArm
          {
            OFFSET 28.1742 -1.7115 0.48768
            CHANNELS 3 Zrotation Xrotation Yrotation
            JOINT lHand
            {
              OFFSET 22.5879 0.773209 7.07136
              CHANNELS 3 Zrotation Xrotation Yrotation
              JOINT lThumb1
              {
                OFFSET 1.2192 -0.487915 3.41376
                CHANNELS 3 Zrotation Xrotation Yrotation
                JOINT lThumb2
                {
                  OFFSET 3.37035 -0.52449 3.41376
                  CHANNELS 3 Zrotation Xrotation Yrotation
                  End Site
                  {
                    OFFSET 1.78271 -1.18214 1.43049
                  }
                }
              }
              JOINT lIndex1
              {
                OFFSET 7.75947 0.938293 5.60832
                CHANNELS 3 Zrotation Xrotation Yrotation
                JOINT lIndex2
                {
                  OFFSET 2.54057 -0.884171 1.56538
                  CHANNELS 3 Zrotation Xrotation Yrotation
                  End Site
                  {
                    OFFSET 1.62519 -0.234802 1.16502
                  }
                }
              }
              JOINT lMid1
              {
                OFFSET 8.24714 1.18213 3.41376
                CHANNELS 3 Zrotation Xrotation Yrotation
                JOINT lMid2
                {
                  OFFSET 3.10165 -0.590103 1.0647
                  CHANNELS 3 Zrotation Xrotation Yrotation
                  End Site
                  {
                    OFFSET 2.48547 -0.328903 0.83742
                  }
                }
              }
              JOINT lRing1
              {
                OFFSET 8.82822 0.546677 1.51678
                CHANNELS 3 Zrotation Xrotation Yrotation
                JOINT lRing2
                {
                  OFFSET 2.60934 -0.819778 -0.0198488
                  CHANNELS 3 Zrotation Xrotation Yrotation
                  End Site
                  {
                    OFFSET 2.33842 -0.294052 0.168128
                  }
                }
              }
              JOINT lPinky1
              {
                OFFSET 8.27202 -0.0477905 -0.4584
                CHANNELS 3 Zrotation Xrotation Yrotation
                JOINT lPinky2
                {
                  OFFSET 1.82734 -0.647385 -0.700984
                  CHANNELS 3 Zrotation Xrotation Yrotation
                  End Site
                  {
                    OFFSET 1.69225 -0.51767 -0.607171
                  }
                }
              }
            }
          }
        }
      }
    }
  }
  JOINT rButtock
  {
    OFFSET -8.77824 4.35084 1.2192
    CHANNELS 3 Zrotation Xrotation Yrotation
    JOINT rThigh
    {
      OFFSET 0 -1.70687 -2.19456
      CHANNELS 3 Zrotation Xrotation Yrotation
      JOINT rShin
      {
        OFFSET 0 -36.8199 0.73152
        CHANNELS 3 Zrotation Xrotation Yrotation
        JOINT rFoot
        {
          OFFSET 0.73152 -45.1104 -5.12064
          CHANNELS 3 Zrotation Xrotation Yrotation
          End Site
          {
            OFFSET -1.1221 -3.69964 12.103
          }
        }
      }
    }
  }
  JOINT lButtock
  {
    OFFSET 8.77824 4.35084 1.2192
    CHANNELS 3 Zrotation Xrotation Yrotation
    JOINT lThigh
    {
      OFFSET 0 -1.70687 -2.19456
      CHANNELS 3 Zrotation Xrotation Yrotation
      JOINT lShin
      {
        OFFSET 0 -36.8199 0.73152
        CHANNELS 3 Zrotation Xrotation Yrotation
        JOINT lFoot
        {
          OFFSET -0.73152 -45.1104 -5.12064
          CHANNELS 3 Zrotation Xrotation Yrotation
          End Site
          {
            OFFSET 1.1221 -3.69964 12.103
          }
        }
      }
    }
  }
}
MOTION
Frames:	5
Frame Time:	0.00833333
-2.54595 -0.314896 25.2234 -3.7384 27.4935 6.888 0.997818 17.6377 15.7009 1.33356 -7.44133 4.51556 -9.52267 8.77398 -11.006 20.5956 4.09787 -20.1576 -0.0 0.0 0.0 -0.0 0.0 0.0 -5.7906e-14 -2.97286e-13 4.92933e-13 62.2279 32.1157 14.192 -26.8371 -25.8083 60.5787 -0.423611 -18.1992 -2.6481 -1.90606e-09 2.28854e-09 -1.1231e-09 -3.27827e-09 3.99944e-09 -1.96543e-09 -1.90606e-09 2.28855e-09 -1.12313e-09 7.73091 5.47488 0.417314 -1.90607e-09 2.28855e-09 -1.1231e-09 2.90554 0.965183 0.102902 -1.90606e-09 2.28854e-09 -1.1231e-09 10.2786 0.731801 0.0259123 -1.90606e-09 2.28855e-09 -1.12309e-09 2.22167 -0.733487 -0.20892 -5.80276e-14 -2.97304e-13 4.92686e-13 -89.6151 57.3635 15.988 28.2768 -32.667 -71.5377 1.65974 -33.9613 5.43163 -1.40815e-09 8.97725e-10 -2.38904e-09 -2.37346e-09 1.67298e-09 -4.15796e-09 -1.40815e-09 8.97731e-10 -2.389e-09 -7.73091 5.47488 -0.417314 -1.40815e-09 8.97729e-10 -2.38903e-09 -2.90554 0.965183 -0.102902 -1.40816e-09 8.97728e-10 -2.38903e-09 -10.2786 0.731801 -0.0259123 -1.40815e-09 8.97726e-10 -2.38904e-09 -2.22167 -0.733487 0.20892 -2.03217e-16 0.0 -3.88251e-19 -21.7407 -16.5814 -15.4604 -0.106221 7.2549 -0.850532 7.9054 -3.63498 -15.0988 2.03217e-16 0.0 3.88251e-19 10.4524 -35.8109 -15.8358 0.0767257 34.393 -1.86205 -7.38563 -7.33571 2.73103
-2.52835 -0.320377 25.2192 -3.704 27.503 6.8995 1.07586 17.4848 15.3223 1.39661 -7.40307 4.41657 -9.52905 8.80352 -10.9793 20.5207 4.11703 -20.1154 -0.0 0.0 0.0 -0.0 0.0 0.0 -4.67482e-14 -2.74015e-13 4.35435e-13 62.6276 33.5292 12.8864 -26.9723 -26.2459 61.2756 -0.451345 -18.7656 -2.73658 -1.32704e-09 2.54569e-09 -1.24323e-09 -2.27557e-09 4.43171e-09 -2.16592e-09 -1.32704e-09 2.5457e-09 -1.24325e-09 7.73091 5.47488 0.417314 -1.32704e-09 2.5457e-09 -1.24323e-09 2.90554 0.965183 0.102902 -1.32704e-09 2.5457e-09 -1.24322e-09 10.2786 0.731801 0.0259123 -1.32704e-09 2.5457e-09 -1.24322e-09 2.22167 -0.733487 -0.20892 -4.68606e-14 -2.74035e-13 4.35202e-13 -89.7133 57.3152 15.9811 28.2755 -32.6589 -71.5274 1.65713 -33.9385 5.42696 -1.15343e-09 5.62006e-10 -1.85285e-09 -1.94852e-09 1.06568e-09 -3.22567e-09 -1.15343e-09 5.62007e-10 -1.85281e-09 -7.73091 5.47488 -0.417314 -1.15343e-09 5.62008e-10 -1.85284e-09 -2.90554 0.965183 -0.102902 -1.15343e-09 5.62006e-10 -1.85284e-09 -10.2786 0.731801 -0.0259123 -1.15342e-09 5.62004e-10 -1.85285e-09 -2.22167 -0.733487 0.20892 -2.03217e-16 0.0 -3.88251e-19 -21.7627 -16.637 -15.4774 -0.106636 7.28513 -0.853444 7.90791 -3.65404 -15.0848 2.03217e-16 0.0 3.88251e-19 10.4293 -35.8252 -15.9109 0.0762239 34.3713 -1.86407 -7.38784 -7.32469 2.76421
-2.5171 -0.328556 25.2245 -3.6791 27.5004 6.914 1.16241 17.2979 14.9546 1.45349 -7.35828 4.32017 -9.55627 8.83651 -10.9589 20.4691 4.14136 -20.0849 -0.0 0.0 0.0 -0.0 0.0 0.0 -3.80305e-14 -2.42943e-13 3.62234e-13 63.1185 34.9099 11.5184 -27.0998 -26.6772 61.9597 -0.479861 -19.3146 -2.82313 -7.29729e-10 2.87484e-09 -1.40739e-09 -1.24036e-09 4.98703e-09 -2.44212e-09 -7.29729e-10 2.87485e-09 -1.4074e-09 7.73091 5.47488 0.417314 -7.29732e-10 2.87485e-09 -1.40739e-09 2.90554 0.965183 0.102902 -7.29725e-10 2.87485e-09 -1.40739e-09 10.2786 0.731801 0.0259123 -7.29731e-10 2.87485e-09 -1.40739e-09 2.22167 -0.733487 -0.20892 -3.81224e-14 -2.42962e-13 3.62019e-13 -89.8204 57.268 15.9828 28.2745 -32.6536 -71.5213 1.65401 -33.9112 5.42137 -7.59774e-10 1.97024e-10 -1.11525e-09 -1.28877e-09 3.95067e-10 -1.94224e-09 -7.59769e-10 1.97021e-10 -1.11522e-09 -7.73091 5.47488 -0.417314 -7.59773e-10 1.97024e-10 -1.11525e-09 -2.90554 0.965183 -0.102902 -7.59777e-10 1.97022e-10 -1.11525e-09 -10.2786 0.731801 -0.0259123 -7.59765e-10 1.9702e-10 -1.11526e-09 -2.22167 -0.733487 0.20892 -2.03217e-16 0.0 -3.88251e-19 -21.7948 -16.7245 -15.5028 -0.107004 7.31523 -0.855982 7.9107 -3.6731 -15.0696 2.03217e-16 0.0 3.88251e-19 10.4057 -35.8742 -15.9774 0.0756416 34.3492 -1.86662 -7.39086 -7.31453 2.80384
-2.49988 -0.338062 25.2163 -3.6484 27.4641 6.9439 1.18621 17.1064 14.69 1.51444 -7.32198 4.25036 -9.60177 8.86747 -10.9491 20.4719 4.21125 -20.0811 -0.0 0.0 0.0 -0.0 0.0 0.0 -1.5872e-14 -2.36943e-13 2.64085e-13 63.9344 36.0805 10.0417 -27.2205 -27.1037 62.6386 -0.502069 -19.7215 -2.88781 -3.35857e-10 3.44655e-09 -1.67884e-09 -5.54523e-10 5.96476e-09 -2.90627e-09 -3.35857e-10 3.44656e-09 -1.67884e-09 7.73091 5.47488 0.417314 -3.3586e-10 3.44656e-09 -1.67884e-09 2.90554 0.965183 0.102902 -3.35854e-10 3.44656e-09 -1.67883e-09 10.2786 0.731801 0.0259123 -3.35861e-10 3.44656e-09 -1.67883e-09 2.22167 -0.733487 -0.20892 -1.59345e-14 -2.36961e-13 2.63887e-13 -89.9276 57.2127 16.003 28.2739 -32.6501 -71.5175 1.65078 -33.883 5.41558 -1.24121e-10 -1.673e-10 -5.39199e-11 -2.18855e-10 -2.94532e-10 -9.45157e-11 -1.24117e-10 -1.67306e-10 -5.38945e-11 -7.73091 5.47488 -0.417314 -1.24121e-10 -1.67301e-10 -5.39168e-11 -2.90554 0.965183 -0.102902 -1.24125e-10 -1.67303e-10 -5.39176e-11 -10.2786 0.731801 -0.0259123 -1.24113e-10 -1.67305e-10 -5.39327e-11 -2.22167 -0.733487 0.20892 -2.03217e-16 0.0 -3.88251e-19 -21.8094 -16.846 -15.4277 -0.107225 7.32314 -0.857744 7.90976 -3.66989 -15.0862 2.03217e-16 0.0 3.88251e-19 10.4301 -35.9141 -15.9682 0.0749143 34.3216 -1.86929 -7.39699 -7.32124 2.87672
-2.511 -0.355654 25.2258 -3.6343 27.1181 7.0187 1.10983 16.9002 14.5806 1.5854 -7.29849 4.22077 -9.67292 8.89109 -10.949 20.5463 4.3533 -20.1054 -0.0 0.0 0.0 -0.0 0.0 0.0 3.58961e-14 -2.75919e-13 9.91947e-14 65.1622 36.9838 8.42762 -27.3381 -27.5385 63.3268 -0.516426 -19.9786 -2.92887 -2.31127e-10 4.62654e-09 -2.21424e-09 -3.62943e-10 7.99779e-09 -3.83035e-09 -2.31127e-10 4.62655e-09 -2.21424e-09 7.73091 5.47488 0.417314 -2.31129e-10 4.62655e-09 -2.21424e-09 2.90554 0.965183 0.102902 -2.31124e-10 4.62655e-09 -2.21424e-09 10.2786 0.731801 0.0259123 -2.31132e-10 4.62655e-09 -2.21423e-09 2.22167 -0.733487 -0.20892 3.58889e-14 -2.75933e-13 9.90107e-14 -90.0437 57.1395 16.0552 28.2736 -32.6499 -71.5185 1.64727 -33.8523 5.40929 1.09948e-09 -6.21581e-10 1.85029e-09 1.84561e-09 -1.19082e-09 3.22179e-09 1.09948e-09 -6.21588e-10 1.85031e-09 -7.73091 5.47488 -0.417314 1.09948e-09 -6.21582e-10 1.8503e-09 -2.90554 0.965183 -0.102902 1.09947e-09 -6.21583e-10 1.85029e-09 -10.2786 0.731801 -0.0259123 1.09948e-09 -6.21585e-10 1.85028e-09 -2.22167 -0.733487 0.20892 -2.03217e-16 0.0 -3.88251e-19 -21.7968 -17.031 -15.1938 -0.107216 7.29753 -0.858224 7.90291 -3.63198 -15.1516 2.03217e-16 0.0 3.88251e-19 10.5322 -35.9451 -15.8423 0.0738245 34.2861 -1.87318 -7.40827 -7.35611 3.01287
